REM DIRINDEX 1\5,1\2\6,1\2\7,1\3\8,1\3\9,1\3\10,1\3\11,1\4\12,1\4\13,1\4\14
REM DIRNAME cjc042,folder01,folder02,folder03,folder04,folder05,folder06,folder07,folder08,folder09,folder10,folder11,folder12,folder13
TITLE ""
FILE "4Q_j_621-628.mp3" MP3
  TRACK 01 AUDIO
    TITLE "8:cjc042_0737"
    INDEX 01 00:00:00
  TRACK 02 AUDIO
    TITLE "0:"
    INDEX 01 00:01:26
  TRACK 03 AUDIO
    TITLE "9:cjc042_0738"
    INDEX 01 00:02:04
  TRACK 04 AUDIO
    TITLE "0:"
    INDEX 01 00:03:47
  TRACK 05 AUDIO
    TITLE "10:cjc042_0739"
    INDEX 01 00:04:25
  TRACK 06 AUDIO
    TITLE "0:"
    INDEX 01 00:07:41
  TRACK 07 AUDIO
    TITLE "11:cjc042_0740"
    INDEX 01 00:08:21
  TRACK 08 AUDIO
    TITLE "0:"
    INDEX 01 00:11:44
  TRACK 09 AUDIO
    TITLE "8:cjc042_0741"
    INDEX 01 00:12:22
  TRACK 10 AUDIO
    TITLE "0:"
    INDEX 01 00:13:53
  TRACK 11 AUDIO
    TITLE "9:cjc042_0742"
    INDEX 01 00:14:31
  TRACK 12 AUDIO
    TITLE "0:"
    INDEX 01 00:15:62
  TRACK 13 AUDIO
    TITLE "10:cjc042_0743"
    INDEX 01 00:16:42
  TRACK 14 AUDIO
    TITLE "0:"
    INDEX 01 00:19:11
  TRACK 15 AUDIO
    TITLE "11:cjc042_0744"
    INDEX 01 00:19:62
  TRACK 16 AUDIO
    TITLE "0:"
    INDEX 01 00:22:01
  TRACK 17 AUDIO
    TITLE "8:cjc042_0745"
    INDEX 01 00:22:54
  TRACK 18 AUDIO
    TITLE "0:"
    INDEX 01 00:23:65
  TRACK 19 AUDIO
    TITLE "9:cjc042_0746"
    INDEX 01 00:24:47
  TRACK 20 AUDIO
    TITLE "0:"
    INDEX 01 00:27:41
  TRACK 21 AUDIO
    TITLE "10:cjc042_0747"
    INDEX 01 00:28:13
  TRACK 22 AUDIO
    TITLE "0:"
    INDEX 01 00:31:14
  TRACK 23 AUDIO
    TITLE "11:cjc042_0748"
    INDEX 01 00:31:65
  TRACK 24 AUDIO
    TITLE "0:"
    INDEX 01 00:35:04
  TRACK 25 AUDIO
    TITLE "8:cjc042_0749"
    INDEX 01 00:35:55
  TRACK 26 AUDIO
    TITLE "0:"
    INDEX 01 00:39:07
  TRACK 27 AUDIO
    TITLE "9:cjc042_0750"
    INDEX 01 00:39:62
  TRACK 28 AUDIO
    TITLE "0:"
    INDEX 01 00:42:08
  TRACK 29 AUDIO
    TITLE "10:cjc042_0751"
    INDEX 01 00:42:63
  TRACK 30 AUDIO
    TITLE "0:"
    INDEX 01 00:45:53
  TRACK 31 AUDIO
    TITLE "11:cjc042_0752"
    INDEX 01 00:46:29
  TRACK 32 AUDIO
    TITLE "0:"
    INDEX 01 00:49:33
  TRACK 33 AUDIO
    TITLE "8:cjc042_0753"
    INDEX 01 00:50:11
  TRACK 34 AUDIO
    TITLE "0:"
    INDEX 01 00:51:50
  TRACK 35 AUDIO
    TITLE "9:cjc042_0754"
    INDEX 01 00:52:39
  TRACK 36 AUDIO
    TITLE "0:"
    INDEX 01 00:55:55
  TRACK 37 AUDIO
    TITLE "10:cjc042_0755"
    INDEX 01 00:56:22
  TRACK 38 AUDIO
    TITLE "0:"
    INDEX 01 00:58:32
  TRACK 39 AUDIO
    TITLE "11:cjc042_0756"
    INDEX 01 00:59:16
  TRACK 40 AUDIO
    TITLE "0:"
    INDEX 01 01:01:11
  TRACK 41 AUDIO
    TITLE "8:cjc042_0757"
    INDEX 01 01:01:62
  TRACK 42 AUDIO
    TITLE "0:"
    INDEX 01 01:03:59
  TRACK 43 AUDIO
    TITLE "9:cjc042_0758"
    INDEX 01 01:04:41
  TRACK 44 AUDIO
    TITLE "0:"
    INDEX 01 01:06:38
  TRACK 45 AUDIO
    TITLE "10:cjc042_0759"
    INDEX 01 01:07:10
  TRACK 46 AUDIO
    TITLE "0:"
    INDEX 01 01:10:26
  TRACK 47 AUDIO
    TITLE "11:cjc042_0760"
    INDEX 01 01:11:03
  TRACK 48 AUDIO
    TITLE "0:"
    INDEX 01 01:14:49
  TRACK 49 AUDIO
    TITLE "8:cjc042_0761"
    INDEX 01 01:15:27
  TRACK 50 AUDIO
    TITLE "0:"
    INDEX 01 01:17:67
  TRACK 51 AUDIO
    TITLE "9:cjc042_0762"
    INDEX 01 01:18:47
  TRACK 52 AUDIO
    TITLE "0:"
    INDEX 01 01:20:65
  TRACK 53 AUDIO
    TITLE "10:cjc042_0763"
    INDEX 01 01:21:43
  TRACK 54 AUDIO
    TITLE "0:"
    INDEX 01 01:26:11
  TRACK 55 AUDIO
    TITLE "11:cjc042_0764"
    INDEX 01 01:26:60
  TRACK 56 AUDIO
    TITLE "0:"
    INDEX 01 01:31:06
  TRACK 57 AUDIO
    TITLE "8:cjc042_0765"
    INDEX 01 01:31:55
  TRACK 58 AUDIO
    TITLE "0:"
    INDEX 01 01:33:23
  TRACK 59 AUDIO
    TITLE "9:cjc042_0766"
    INDEX 01 01:33:72
  TRACK 60 AUDIO
    TITLE "0:"
    INDEX 01 01:35:49
  TRACK 61 AUDIO
    TITLE "10:cjc042_0767"
    INDEX 01 01:36:23
  TRACK 62 AUDIO
    TITLE "0:"
    INDEX 01 01:39:55
  TRACK 63 AUDIO
    TITLE "11:cjc042_0768"
    INDEX 01 01:40:33
  TRACK 64 AUDIO
    TITLE "0:"
    INDEX 01 01:43:49
